# xmcd
#
# Track frame offsets:
#   150
#   16190
#   34967
#   56107
#   73912
#   91750
#   108747
#   125457
#   140450
#   159712
#   175684
#   192900
#   212260
#   232912
#
# Disc length: 3322 seconds
#
# Revision: 0
# Processed by: cddbd v1.5PL3 Copyright (c) Steve Scherf et al.
# Submitted via: uFREEDB ActiveX Control 1.5
#
DISCID=be0cf80e
DTITLE=Pagode Brasil - Pagode Brasil 2
DYEAR=1900
DGENRE=Pagode
TTITLE0=Exaltasamba - Dez a um
TTITLE1=Art Popular - Encontro
TTITLE2=Negritude - Que dure para sempre
TTITLE3=Soweto - Momentos
TTITLE4=Jorge Aragão - Loucuras de uma paixão
TTITLE5=Agua na boca - Mais uma chance
TTITLE6=Fora de série - Pra ninar você
TTITLE7=Redenção - Você me pegou
TTITLE8=Balança Brasil - Somar amor
TTITLE9=Pagunça - Depois do amor
TTITLE10=Toke Divinal - Pequena princesa
TTITLE11=Negritude - Você faz falta
TTITLE12=Art popular - Tardes
TTITLE13=Exaltasamba - Telegrama
EXTD=
EXTT0=
EXTT1=
EXTT2=
EXTT3=
EXTT4=
EXTT5=
EXTT6=
EXTT7=
EXTT8=
EXTT9=
EXTT10=
EXTT11=
EXTT12=
EXTT13=
PLAYORDER=
